<svg aria-hidden="true" style="position: absolute; width: 0; height: 0; overflow: hidden;" version="1.1" xmlns="http://www.w3.org/2000/svg" xmlns:xlink="http://www.w3.org/1999/xlink">
<defs>
<symbol id="icon-xanix" viewBox="0 0 164 32">
<path fill="#fff" style="fill: var(--color1, #fff)" d="M30.251 29.793v-0.005c0.176 0.218 0.34 0.424 0.494 0.616 0.224 0.28 0.424 0.53 0.597 0.742 0.245 0.311 0.487 0.593 0.717 0.844h-4.33c-0.505 0-0.951-0.042-1.352-0.135l-0.003-0-0.003-0.001c-0.389-0.080-0.742-0.24-1.081-0.456-0.327-0.208-0.665-0.543-1.036-0.998-0-0-0.001-0.001-0.001-0.001l-8.874-11.252-9.4 11.46c-0.346 0.448-0.762 0.783-1.251 1.028-0.476 0.238-1.139 0.365-2.005 0.365h-2.609c0.34-0.324 0.683-0.672 1.021-1.049 0.282-0.309 0.558-0.614 0.825-0.911 0.17-0.189 0.336-0.374 0.499-0.553l0.003-0.003 0.003-0.004 10.813-13.009-12.708-16.268h6.449l9.35 12.524 10.339-12.524h4.489l-12.714 15.208 11.767 14.381z"></path>
<path fill="#fff" style="fill: var(--color1, #fff)" d="M35.207 32l9.202-27.179c0-0 0-0.001 0.001-0.001 0.551-1.558 1.298-2.75 2.243-3.58 0.92-0.809 2.533-1.239 4.897-1.239 2.009 0 3.478 0.342 4.45 1.010l0.166 0.129c0.98 0.764 1.779 1.982 2.373 3.68l0 0 9.404 27.18h-5.356l-3.002-8.877h-17.765l-2.862 8.877h-3.752zM54.121 21.099l4.647-0.011-4.706-14.315c-0.232-0.717-0.542-1.349-0.931-1.906-0.437-0.624-1.269-0.896-2.409-0.896-1.273 0-2.195 0.28-2.656 0.927-0.411 0.578-0.712 1.201-0.902 1.88l-1.064 3.343c-4.278 10.978 2.317 10.978 8.021 10.978z"></path>
<path fill="#fff" style="fill: var(--color1, #fff)" d="M96.089 18.044l0.024-0.012c3.965 6.752 7.441 10.517 7.324-2.66l0.117-15.103h3.51l-0.021 26.971c0 0 0.251 2.773-2.886 4.132-1.279 0.555-3.517 0.617-3.517 0.617l-21.411-27.503v27.514h-3.563v-29.067c0-0.625 0.027-1.128 0.078-1.513 0.052-0.392 0.126-0.633 0.202-0.753 0.060-0.094 0.204-0.197 0.495-0.273 0.285-0.074 0.677-0.114 1.179-0.114h4.579l13.89 17.764z"></path>
<path fill="#fff" style="fill: var(--color1, #fff)" d="M119.356 1.126c0.054-0.25 0.185-0.452 0.401-0.605 0.204-0.144 0.58-0.241 1.17-0.241h3.288v31.72h-4.961v-29.692c0-0.506 0.042-0.899 0.103-1.183z"></path>
<path fill="#fff" style="fill: var(--color1, #fff)" d="M163.4 31.989h-4.331c-0.505 0-0.952-0.042-1.352-0.135l-0.002-0-0.003-0.001c-0.389-0.080-0.742-0.24-1.081-0.456-0.327-0.208-0.665-0.543-1.036-0.998-0-0-0.001-0.001-0.001-0.001l-8.874-11.252-9.4 11.46c-0.346 0.448-0.762 0.783-1.251 1.028-0.476 0.238-1.139 0.365-2.005 0.365h-2.609c0.34-0.324 0.683-0.672 1.021-1.049 0.282-0.309 0.558-0.614 0.824-0.911 0.17-0.189 0.336-0.374 0.499-0.553l0.003-0.003 0.003-0.004 10.814-13.009-12.708-16.268h6.449l9.35 12.524 10.339-12.524h4.489l-12.713 15.197 11.396 13.927c0.317 0.392 0.606 0.754 0.866 1.075 0.224 0.28 0.424 0.53 0.597 0.742 0.245 0.311 0.486 0.593 0.717 0.844z"></path>
</symbol>
<symbol id="icon-arrow" viewBox="0 0 32 32">
<path fill="none" stroke="rgba(96, 71, 206, 1)" style="stroke: var(--color1, rgba(96, 71, 206, 1))" stroke-linejoin="miter" stroke-linecap="butt" stroke-miterlimit="4" stroke-width="4.4269" d="M1.565 30.435l28.221-28.221M1.565 2.213h28.221v28.221"></path>
</symbol>
<symbol id="icon-arrow-btn" viewBox="0 0 32 32">
<path stroke-linejoin="miter" stroke-linecap="butt" stroke-miterlimit="4" stroke-width="4.5888" d="M1.622 30.378l28.083-28.083M1.622 2.294h28.083v28.083"></path>
</symbol>
<symbol id="icon-hot-price" viewBox="0 0 32 32">
<path fill="none" stroke="#fff" style="stroke: var(--color1, #fff)" stroke-linejoin="round" stroke-linecap="butt" stroke-miterlimit="4" stroke-width="2" d="M26.667 18.667c0-8-10.667-16-10.667-16-0.518 3.316-1.025 5.095-2.667 8-1.601-0.74-2-1.333-2.667-3-2.667 3-5.333 7-5.333 11 0 5.891 4.776 10.667 10.667 10.667s10.667-4.776 10.667-10.667z"></path>
<path fill="none" stroke="#fff" style="stroke: var(--color1, #fff)" stroke-linejoin="round" stroke-linecap="round" stroke-miterlimit="4" stroke-width="2" d="M13.333 22.667l5.333-5.333"></path>
<path fill="none" stroke="#fff" style="stroke: var(--color1, #fff)" stroke-linejoin="round" stroke-linecap="round" stroke-miterlimit="4" stroke-width="2.6667" d="M13.333 17.333h0.012M18.655 22.667h0.012"></path>
</symbol>
<symbol id="icon-recent" viewBox="0 0 32 32">
<path fill="none" stroke="#fff" style="stroke: var(--color1, #fff)" stroke-linejoin="round" stroke-linecap="round" stroke-miterlimit="4" stroke-width="2" d="M14.675 28h-1.868c-4.78 0-7.17 0-8.656-1.513s-1.485-3.949-1.485-8.82 0-7.307 1.485-8.82 3.875-1.513 8.656-1.513h5.070c4.78 0 7.171 0 8.656 1.513 1.142 1.164 1.406 2.875 1.467 5.82"></path>
<path fill="none" stroke="#fff" style="stroke: var(--color1, #fff)" stroke-linejoin="round" stroke-linecap="round" stroke-miterlimit="4" stroke-width="2" d="M25.133 25.134l-1.8-1.2v-3M23.333 29.334c3.314 0 6-2.686 6-6s-2.686-6-6-6c-3.314 0-6 2.686-6 6s2.686 6 6 6z"></path>
<path fill="none" stroke="#fff" style="stroke: var(--color1, #fff)" stroke-linejoin="round" stroke-linecap="round" stroke-miterlimit="4" stroke-width="2" d="M21.333 7.333l-0.132-0.412c-0.66-2.053-0.99-3.080-1.776-3.667s-1.829-0.587-3.916-0.587h-0.351c-2.087 0-3.131 0-3.916 0.587s-1.116 1.614-1.776 3.667l-0.132 0.412"></path>
</symbol>
<symbol id="icon-star" viewBox="0 0 32 32">
<path fill="none" stroke="#fff" style="stroke: var(--color1, #fff)" stroke-linejoin="round" stroke-linecap="butt" stroke-miterlimit="4" stroke-width="2" d="M18.623 12.969c0.040 0.137 0.060 0.205 0.103 0.258 0.014 0.017 0.030 0.033 0.047 0.047 0.052 0.043 0.121 0.063 0.258 0.103l7 2.047c0.704 0.206 1.056 0.309 1.104 0.491 0.015 0.056 0.015 0.114 0 0.17-0.048 0.182-0.4 0.285-1.104 0.491l-7 2.047c-0.137 0.040-0.205 0.060-0.258 0.103-0.017 0.014-0.033 0.030-0.047 0.047-0.043 0.052-0.063 0.121-0.103 0.258l-2.047 7c-0.206 0.704-0.309 1.056-0.491 1.104-0.056 0.015-0.114 0.015-0.17 0-0.182-0.048-0.285-0.4-0.491-1.104l-2.047-7c-0.040-0.137-0.060-0.205-0.103-0.258-0.014-0.017-0.030-0.033-0.047-0.047-0.052-0.043-0.121-0.063-0.258-0.103l-7-2.047c-0.704-0.206-1.056-0.309-1.104-0.491-0.015-0.056-0.015-0.114 0-0.17 0.048-0.182 0.4-0.285 1.104-0.491l7-2.047c0.137-0.040 0.205-0.060 0.258-0.103 0.017-0.014 0.033-0.030 0.047-0.047 0.043-0.052 0.063-0.121 0.103-0.258l2.047-7c0.206-0.704 0.309-1.056 0.491-1.104 0.056-0.015 0.114-0.015 0.17 0 0.182 0.048 0.285 0.4 0.491 1.104l2.047 7z"></path>
</symbol>
<symbol id="icon-thunder" viewBox="0 0 32 32">
<path fill="none" stroke="#fff" style="stroke: var(--color1, #fff)" stroke-linejoin="round" stroke-linecap="round" stroke-miterlimit="4" stroke-width="3.6923" d="M16.322 2.399c0.722-0.994 2.075-0.375 2.075 0.949v9.841c0 0.794 0.53 1.437 1.185 1.437h4.489c1.020 0 1.563 1.458 0.89 2.386l-9.229 12.714c-0.722 0.994-2.075 0.375-2.075-0.949v-9.841c0-0.793-0.53-1.437-1.185-1.437h-4.489c-1.020 0-1.563-1.458-0.89-2.386l9.228-12.714z"></path>
</symbol>
</defs>
</svg>
