<svg aria-hidden="true" style="position: absolute; width: 0; height: 0; overflow: hidden;" version="1.1" xmlns="http://www.w3.org/2000/svg" xmlns:xlink="http://www.w3.org/1999/xlink">
<defs>
<symbol id="icon-xanix" viewBox="0 0 164 32">
<path fill="#fff" style="fill: var(--color1, #fff)" d="M30.251 29.793v-0.005c0.176 0.218 0.34 0.424 0.494 0.616 0.224 0.28 0.424 0.53 0.597 0.742 0.245 0.311 0.487 0.593 0.717 0.844h-4.33c-0.505 0-0.951-0.042-1.352-0.135l-0.003-0-0.003-0.001c-0.389-0.080-0.742-0.24-1.081-0.456-0.327-0.208-0.665-0.543-1.036-0.998-0-0-0.001-0.001-0.001-0.001l-8.874-11.252-9.4 11.46c-0.346 0.448-0.762 0.783-1.251 1.028-0.476 0.238-1.139 0.365-2.005 0.365h-2.609c0.34-0.324 0.683-0.672 1.021-1.049 0.282-0.309 0.558-0.614 0.825-0.911 0.17-0.189 0.336-0.374 0.499-0.553l0.003-0.003 0.003-0.004 10.813-13.009-12.708-16.268h6.449l9.35 12.524 10.339-12.524h4.489l-12.714 15.208 11.767 14.381z"></path>
<path fill="#fff" style="fill: var(--color1, #fff)" d="M35.207 32l9.202-27.179c0-0 0-0.001 0.001-0.001 0.551-1.558 1.298-2.75 2.243-3.58 0.92-0.809 2.533-1.239 4.897-1.239 2.009 0 3.478 0.342 4.45 1.010l0.166 0.129c0.98 0.764 1.779 1.982 2.373 3.68l0 0 9.404 27.18h-5.356l-3.002-8.877h-17.765l-2.862 8.877h-3.752zM54.121 21.099l4.647-0.011-4.706-14.315c-0.232-0.717-0.542-1.349-0.931-1.906-0.437-0.624-1.269-0.896-2.409-0.896-1.273 0-2.195 0.28-2.656 0.927-0.411 0.578-0.712 1.201-0.902 1.88l-1.064 3.343c-4.278 10.978 2.317 10.978 8.021 10.978z"></path>
<path fill="#fff" style="fill: var(--color1, #fff)" d="M96.089 18.044l0.024-0.012c3.965 6.752 7.441 10.517 7.324-2.66l0.117-15.103h3.51l-0.021 26.971c0 0 0.251 2.773-2.886 4.132-1.279 0.555-3.517 0.617-3.517 0.617l-21.411-27.503v27.514h-3.563v-29.067c0-0.625 0.027-1.128 0.078-1.513 0.052-0.392 0.126-0.633 0.202-0.753 0.060-0.094 0.204-0.197 0.495-0.273 0.285-0.074 0.677-0.114 1.179-0.114h4.579l13.89 17.764z"></path>
<path fill="#fff" style="fill: var(--color1, #fff)" d="M119.356 1.126c0.054-0.25 0.185-0.452 0.401-0.605 0.204-0.144 0.58-0.241 1.17-0.241h3.288v31.72h-4.961v-29.692c0-0.506 0.042-0.899 0.103-1.183z"></path>
<path fill="#fff" style="fill: var(--color1, #fff)" d="M163.4 31.989h-4.331c-0.505 0-0.952-0.042-1.352-0.135l-0.002-0-0.003-0.001c-0.389-0.080-0.742-0.24-1.081-0.456-0.327-0.208-0.665-0.543-1.036-0.998-0-0-0.001-0.001-0.001-0.001l-8.874-11.252-9.4 11.46c-0.346 0.448-0.762 0.783-1.251 1.028-0.476 0.238-1.139 0.365-2.005 0.365h-2.609c0.34-0.324 0.683-0.672 1.021-1.049 0.282-0.309 0.558-0.614 0.824-0.911 0.17-0.189 0.336-0.374 0.499-0.553l0.003-0.003 0.003-0.004 10.814-13.009-12.708-16.268h6.449l9.35 12.524 10.339-12.524h4.489l-12.713 15.197 11.396 13.927c0.317 0.392 0.606 0.754 0.866 1.075 0.224 0.28 0.424 0.53 0.597 0.742 0.245 0.311 0.486 0.593 0.717 0.844z"></path>
</symbol>
<symbol id="icon-arrow" viewBox="0 0 32 32">
<path fill="none" stroke="rgba(96, 71, 206, 1)" style="stroke: var(--color1, rgba(96, 71, 206, 1))" stroke-linejoin="miter" stroke-linecap="butt" stroke-miterlimit="4" stroke-width="4.4269" d="M1.565 30.435l28.221-28.221M1.565 2.213h28.221v28.221"></path>
</symbol>
<symbol id="icon-arrow-btn" viewBox="0 0 32 32">
<path stroke-linejoin="miter" stroke-linecap="butt" stroke-miterlimit="4" stroke-width="4.5888" d="M1.622 30.378l28.083-28.083M1.622 2.294h28.083v28.083"></path>
</symbol>
<symbol id="icon-hot-price" viewBox="0 0 32 32">
<path fill="none" stroke="#fff" style="stroke: var(--color1, #fff)" stroke-linejoin="round" stroke-linecap="butt" stroke-miterlimit="4" stroke-width="2" d="M26.667 18.667c0-8-10.667-16-10.667-16-0.518 3.316-1.025 5.095-2.667 8-1.601-0.74-2-1.333-2.667-3-2.667 3-5.333 7-5.333 11 0 5.891 4.776 10.667 10.667 10.667s10.667-4.776 10.667-10.667z"></path>
<path fill="none" stroke="#fff" style="stroke: var(--color1, #fff)" stroke-linejoin="round" stroke-linecap="round" stroke-miterlimit="4" stroke-width="2" d="M13.333 22.667l5.333-5.333"></path>
<path fill="none" stroke="#fff" style="stroke: var(--color1, #fff)" stroke-linejoin="round" stroke-linecap="round" stroke-miterlimit="4" stroke-width="2.6667" d="M13.333 17.333h0.012M18.655 22.667h0.012"></path>
</symbol>
<symbol id="icon-recent" viewBox="0 0 32 32">
<path fill="none" stroke="#fff" style="stroke: var(--color1, #fff)" stroke-linejoin="round" stroke-linecap="round" stroke-miterlimit="4" stroke-width="2" d="M14.675 28h-1.868c-4.78 0-7.17 0-8.656-1.513s-1.485-3.949-1.485-8.82 0-7.307 1.485-8.82 3.875-1.513 8.656-1.513h5.070c4.78 0 7.171 0 8.656 1.513 1.142 1.164 1.406 2.875 1.467 5.82"></path>
<path fill="none" stroke="#fff" style="stroke: var(--color1, #fff)" stroke-linejoin="round" stroke-linecap="round" stroke-miterlimit="4" stroke-width="2" d="M25.133 25.134l-1.8-1.2v-3M23.333 29.334c3.314 0 6-2.686 6-6s-2.686-6-6-6c-3.314 0-6 2.686-6 6s2.686 6 6 6z"></path>
<path fill="none" stroke="#fff" style="stroke: var(--color1, #fff)" stroke-linejoin="round" stroke-linecap="round" stroke-miterlimit="4" stroke-width="2" d="M21.333 7.333l-0.132-0.412c-0.66-2.053-0.99-3.080-1.776-3.667s-1.829-0.587-3.916-0.587h-0.351c-2.087 0-3.131 0-3.916 0.587s-1.116 1.614-1.776 3.667l-0.132 0.412"></path>
</symbol>
<symbol id="icon-star" viewBox="0 0 32 32">
<path fill="none" stroke="#fff" style="stroke: var(--color1, #fff)" stroke-linejoin="round" stroke-linecap="butt" stroke-miterlimit="4" stroke-width="2" d="M18.623 12.969c0.040 0.137 0.060 0.205 0.103 0.258 0.014 0.017 0.030 0.033 0.047 0.047 0.052 0.043 0.121 0.063 0.258 0.103l7 2.047c0.704 0.206 1.056 0.309 1.104 0.491 0.015 0.056 0.015 0.114 0 0.17-0.048 0.182-0.4 0.285-1.104 0.491l-7 2.047c-0.137 0.040-0.205 0.060-0.258 0.103-0.017 0.014-0.033 0.030-0.047 0.047-0.043 0.052-0.063 0.121-0.103 0.258l-2.047 7c-0.206 0.704-0.309 1.056-0.491 1.104-0.056 0.015-0.114 0.015-0.17 0-0.182-0.048-0.285-0.4-0.491-1.104l-2.047-7c-0.040-0.137-0.060-0.205-0.103-0.258-0.014-0.017-0.030-0.033-0.047-0.047-0.052-0.043-0.121-0.063-0.258-0.103l-7-2.047c-0.704-0.206-1.056-0.309-1.104-0.491-0.015-0.056-0.015-0.114 0-0.17 0.048-0.182 0.4-0.285 1.104-0.491l7-2.047c0.137-0.040 0.205-0.060 0.258-0.103 0.017-0.014 0.033-0.030 0.047-0.047 0.043-0.052 0.063-0.121 0.103-0.258l2.047-7c0.206-0.704 0.309-1.056 0.491-1.104 0.056-0.015 0.114-0.015 0.17 0 0.182 0.048 0.285 0.4 0.491 1.104l2.047 7z"></path>
</symbol>
<symbol id="icon-thunder" viewBox="0 0 32 32">
<path fill="none" stroke="#fff" style="stroke: var(--color1, #fff)" stroke-linejoin="round" stroke-linecap="round" stroke-miterlimit="4" stroke-width="3.6923" d="M16.322 2.399c0.722-0.994 2.075-0.375 2.075 0.949v9.841c0 0.794 0.53 1.437 1.185 1.437h4.489c1.020 0 1.563 1.458 0.89 2.386l-9.229 12.714c-0.722 0.994-2.075 0.375-2.075-0.949v-9.841c0-0.793-0.53-1.437-1.185-1.437h-4.489c-1.020 0-1.563-1.458-0.89-2.386l9.228-12.714z"></path>
</symbol>
<symbol id="icon-spine" viewBox="0 0 98 32">
<path fill="#fff" style="fill: var(--color1, #fff)" opacity="0.64" d="M15.057 0.031c0.793-0.061 1.624-0.015 2.415 0.066 0.735 0.076 1.457 0.175 2.176 0.356 2.421 0.61 4.757 1.891 6.648 3.506 2.301 1.964 3.907 4.649 4.787 7.517 0.195 0.635 0.336 1.267 0.439 1.923 0.034 0.214 0.082 0.418 0.099 0.635l-10.56-0.005c-0.091-0.153-0.137-0.339-0.205-0.503-0.064-0.156-0.157-0.309-0.246-0.452-0.793-1.272-2.18-2.233-3.644-2.564-1.051-0.238-2.495-0.192-3.427 0.397 0.181 0.239 0.428 0.454 0.629 0.681l1.086 1.253 1.637 1.736 4.082 4.384 1.767 1.878c0.072 0.084 0.114 0.153 0.143 0.26-0.033 0.284-0.282 0.484-0.473 0.678l-0.735 0.724c-1.337 1.21-3.121 2.025-4.92 2.216-0.621 0.066-1.335 0.049-1.962 0.013-0.354-0.020-0.727-0.102-1.072-0.186-1.405-0.341-2.721-1.071-3.794-2.030-0.473-0.422-0.869-0.883-1.292-1.353l-2.73-0.006c-0.215-0.001-1.128-0.054-1.257 0.036-0.005 0.237 0.117 0.452 0.225 0.656 0.191 0.357 0.396 0.715 0.628 1.048 1.341 1.931 3.207 3.547 5.396 4.453 0.926 0.383 1.897 0.633 2.883 0.809 1.099 0.197 2.233 0.249 3.343 0.137 0.388-0.039 0.793-0.129 1.174-0.213 0.868-0.192 1.718-0.452 2.533-0.806 0.683-0.297 1.362-0.64 1.973-1.065 2.126-1.48 3.824-3.603 4.627-6.073 0.249-0.765 0.399-1.566 0.541-2.356l2.965-0.009c0.133 0 0.439-0.047 0.559 0.001 0.020 0.008 0.034 0.026 0.050 0.039l0.008 0.062c0.016 0.39-0.12 0.85-0.195 1.234-0.513 2.621-1.735 5.019-3.453 7.060-2.243 2.665-5.461 4.512-8.869 5.222-0.916 0.191-1.846 0.271-2.777 0.352l-1.843-0.086c-0.273-0.020-0.545-0.020-0.818-0.056-1.79-0.235-3.624-0.836-5.214-1.688-1.068-0.573-2.037-1.272-2.961-2.050-2.272-1.914-3.935-4.43-4.8-7.269-0.278-0.912-0.496-1.884-0.575-2.837 0.882-0.064 1.805-0.013 2.69-0.012l6.924 0.014c0.216 0 0.522-0.046 0.724 0.016 0.35 0.106 0.494 0.671 0.655 0.963 0.649 1.175 1.97 2.093 3.25 2.454 1.199 0.338 2.709 0.288 3.814-0.324l-0.785-0.823-2.476-2.66-5.165-5.524c-0.347-0.373-0.737-0.732-1.045-1.136 0.13-0.201 0.297-0.379 0.454-0.559 0.26-0.298 0.524-0.591 0.819-0.856 1.856-1.669 4.185-2.41 6.667-2.262 1.9 0.113 3.768 0.999 5.188 2.238 0.454 0.396 0.865 0.849 1.266 1.298 0.252 0.029 0.515 0.015 0.768 0.015l1.381 0.004 1.088 0.008c0.283 0.006 0.545 0.026 0.829-0.010-0.087-0.271-0.243-0.532-0.382-0.78-0.403-0.72-0.882-1.383-1.419-2.010-2.172-2.536-5.259-4.12-8.599-4.371-3.238-0.243-6.5 0.857-8.956 2.955-2.015 1.721-3.671 4.284-4.048 6.933-0.033 0.232-0.041 0.472-0.059 0.705l-3.631 0.025c0.026-0.461 0.124-0.925 0.213-1.378 0.553-2.831 1.987-5.453 3.916-7.584 2.78-3.070 6.804-4.853 10.927-5.064z"></path>
<path fill="#fff" style="fill: var(--color1, #fff)" opacity="0.64" d="M44.431 13.129c-0.071-0.669-0.373-1.189-0.903-1.562-0.526-0.373-1.21-0.559-2.052-0.559-0.592 0-1.1 0.089-1.524 0.268s-0.747 0.421-0.972 0.727-0.339 0.656-0.345 1.049c0 0.327 0.074 0.61 0.222 0.85 0.153 0.24 0.36 0.444 0.62 0.613 0.26 0.163 0.549 0.301 0.865 0.413s0.635 0.207 0.957 0.283l1.47 0.367c0.592 0.138 1.161 0.324 1.707 0.559 0.551 0.235 1.044 0.531 1.478 0.888 0.439 0.357 0.786 0.789 1.041 1.294s0.383 1.097 0.383 1.776c0 0.919-0.235 1.728-0.704 2.427-0.47 0.694-1.148 1.238-2.036 1.631-0.883 0.388-1.952 0.582-3.208 0.582-1.22 0-2.279-0.189-3.177-0.566-0.893-0.378-1.592-0.929-2.097-1.654-0.5-0.725-0.771-1.608-0.811-2.649h2.794c0.041 0.546 0.209 1 0.505 1.363s0.681 0.633 1.156 0.811c0.48 0.179 1.016 0.268 1.608 0.268 0.617 0 1.158-0.092 1.623-0.276 0.47-0.189 0.837-0.449 1.103-0.781 0.265-0.337 0.401-0.73 0.406-1.179-0.005-0.408-0.125-0.745-0.36-1.011-0.235-0.271-0.564-0.495-0.988-0.674-0.418-0.184-0.908-0.347-1.47-0.49l-1.783-0.459c-1.291-0.332-2.312-0.835-3.062-1.508-0.745-0.679-1.118-1.58-1.118-2.702 0-0.924 0.25-1.733 0.75-2.427 0.505-0.694 1.192-1.233 2.059-1.615 0.868-0.388 1.85-0.582 2.947-0.582 1.113 0 2.087 0.194 2.924 0.582 0.842 0.383 1.503 0.916 1.983 1.6 0.48 0.679 0.727 1.46 0.743 2.343h-2.733zM49.911 24.497v-15.679h5.879c1.205 0 2.215 0.225 3.032 0.674 0.822 0.449 1.442 1.067 1.86 1.853 0.424 0.781 0.636 1.669 0.636 2.664 0 1.005-0.212 1.899-0.636 2.679s-1.049 1.396-1.876 1.845c-0.827 0.444-1.845 0.666-3.054 0.666h-3.897v-2.335h3.514c0.704 0 1.281-0.123 1.73-0.367s0.781-0.582 0.995-1.011c0.22-0.429 0.329-0.921 0.329-1.478s-0.11-1.046-0.329-1.47c-0.214-0.424-0.548-0.753-1.003-0.988-0.449-0.24-1.028-0.36-1.738-0.36h-2.603v13.305h-2.84zM66.624 8.819v15.679h-2.84v-15.679h2.84zM82.584 8.819v15.679h-2.526l-7.388-10.679h-0.13v10.679h-2.84v-15.679h2.541l7.38 10.687h0.138v-10.687h2.825zM85.679 24.497v-15.679h10.197v2.381h-7.357v4.256h6.829v2.381h-6.829v4.279h7.418v2.381h-10.259z"></path>
</symbol>
<symbol id="icon-ether" viewBox="0 0 109 32">
<path fill="#fff" style="fill: var(--color1, #fff)" opacity="0.64" d="M32.856 25.948v-17.732h10.701v1.905h-8.554v5.991h8v1.905h-8v6.026h8.693v1.905h-10.84zM46.458 10.121v-1.905h13.299v1.905h-5.576v15.827h-2.147v-15.827h-5.576zM63.070 25.948v-17.732h2.147v7.896h9.455v-7.896h2.147v17.732h-2.147v-7.931h-9.455v7.931h-2.147zM81.118 25.948v-17.732h10.701v1.905h-8.554v5.991h8v1.905h-8v6.026h8.693v1.905h-10.84zM95.689 25.948v-17.732h5.991c1.385 0 2.523 0.237 3.411 0.71 0.889 0.468 1.547 1.111 1.974 1.931s0.641 1.752 0.641 2.796c0 1.045-0.214 1.971-0.641 2.779s-1.082 1.443-1.965 1.905c-0.883 0.456-2.012 0.684-3.385 0.684h-4.848v-1.939h4.779c0.946 0 1.708-0.139 2.286-0.416 0.583-0.277 1.004-0.67 1.264-1.177 0.266-0.514 0.398-1.126 0.398-1.836s-0.133-1.33-0.398-1.861c-0.265-0.531-0.69-0.941-1.273-1.229-0.583-0.294-1.354-0.442-2.312-0.442h-3.775v15.827h-2.147zM104.036 17.982l4.364 7.965h-2.494l-4.294-7.965h2.424z"></path>
<path fill="#fff" style="fill: var(--color1, #fff)" opacity="0.64" d="M13.887 0.025l0.152-0.022 13.913 14.605-13.885 14.607-0.113 0.054-13.952-14.668 13.885-14.576zM14.834 3.287l-0.028 9.703 0.002 3.654c0 0.61-0.043 1.271 0.021 1.874l10.483-4.202-10.479-11.028zM13.008 3.411l-10.215 10.72c0.949 0.551 2.067 0.913 3.079 1.336l7.297 3.066-0.009-11.649-0.002-2.326c0-0.346 0.058-0.821-0.030-1.147h-0.12zM4.288 16.707l8.737 9.138 0.111-0.005 0.024-5.433-7.259-3.064c-0.527-0.223-1.063-0.481-1.613-0.637zM23.073 17.065l-8.231 3.359c-0.079 0.769-0.036 1.575-0.034 2.349l0.024 3.028 0.079 0.049 0.084-0.034 8.266-8.695-0.015-0.085-0.171 0.029z"></path>
</symbol>
<symbol id="icon-estate" viewBox="0 0 117 32">
<path fill="#fff" style="fill: var(--color1, #fff)" opacity="0.64" d="M36.082 24.082v-15.678h9.829v2.036h-7.464v4.777h6.951v2.029h-6.951v4.8h7.556v2.036h-9.921zM57.622 12.522c-0.081-0.725-0.418-1.286-1.011-1.684-0.592-0.403-1.337-0.605-2.235-0.605-0.643 0-1.199 0.102-1.669 0.306-0.47 0.199-0.835 0.475-1.095 0.827-0.255 0.347-0.383 0.743-0.383 1.187 0 0.373 0.087 0.694 0.26 0.965 0.179 0.27 0.411 0.498 0.697 0.681 0.291 0.179 0.602 0.329 0.934 0.452 0.332 0.117 0.651 0.214 0.957 0.291l1.531 0.398c0.5 0.122 1.013 0.288 1.539 0.498s1.013 0.485 1.462 0.827c0.449 0.342 0.811 0.765 1.087 1.271 0.281 0.505 0.421 1.11 0.421 1.814 0 0.888-0.23 1.677-0.689 2.365-0.454 0.689-1.115 1.233-1.983 1.631-0.863 0.398-1.906 0.597-3.131 0.597-1.174 0-2.189-0.186-3.047-0.559s-1.529-0.901-2.013-1.585c-0.485-0.689-0.753-1.506-0.804-2.45h2.373c0.046 0.566 0.23 1.039 0.551 1.416 0.327 0.373 0.743 0.651 1.248 0.834 0.51 0.179 1.069 0.268 1.676 0.268 0.669 0 1.263-0.105 1.784-0.314 0.526-0.214 0.939-0.51 1.24-0.888 0.301-0.383 0.452-0.829 0.452-1.34 0-0.464-0.133-0.845-0.398-1.141-0.26-0.296-0.615-0.541-1.064-0.735-0.444-0.194-0.947-0.365-1.508-0.513l-1.853-0.505c-1.255-0.342-2.251-0.845-2.986-1.508-0.73-0.663-1.095-1.541-1.095-2.633 0-0.903 0.245-1.692 0.735-2.366s1.153-1.197 1.99-1.569c0.837-0.378 1.781-0.566 2.833-0.566 1.062 0 1.998 0.186 2.81 0.559 0.817 0.373 1.46 0.886 1.929 1.539 0.47 0.648 0.715 1.393 0.735 2.235h-2.281zM62.172 10.44v-2.036h12.134v2.036h-4.892v13.642h-2.358v-13.642h-4.884zM76.459 24.082h-2.511l5.642-15.678h2.733l5.642 15.678h-2.511l-4.433-12.831h-0.122l-4.44 12.831zM76.88 17.942h8.145v1.99h-8.145v-1.99zM87.603 10.44v-2.036h12.134v2.036h-4.892v13.642h-2.358v-13.642h-4.884zM102.419 24.082v-15.678h9.83v2.036h-7.464v4.777h6.951v2.029h-6.951v4.8h7.556v2.036h-9.922z"></path>
<path fill="#fff" style="fill: var(--color1, #fff)" opacity="0.64" d="M0.002 25.552v-25.549h32v32h-32v-6.451zM0.002 25.552l1.725-0.003 0.018-12.919 6.195-0.005c0.012-0.844-0.025-7.94 0.068-8.049l16.039 0.002v5.004l4.428 0.035 0.023 5.163 1.791 0.037-0.011 10.709 1.725 0.049v-25.57h-32v25.549zM32.002 27.45l-32 0.021v4.532h32v-4.553zM11.416 6.471l-1.605 0.007v6.121l3.904 0.054 0.003 2.903c1.837-0.267 3.509-0.828 5.060-1.865 1.074-0.754 2.142-1.688 2.925-2.747 0.167-0.226 0.382-0.477 0.433-0.76 0.056-0.314 0.144-3.514 0.042-3.668l-0.017-0.023-10.744-0.023zM22.074 13.471c-0.6 0.44-1.119 0.979-1.719 1.425-1.858 1.375-4.296 2.409-6.612 2.609-0.105 1.928-0.030 3.888-0.025 5.819l0.002 1.375c-0.003 0.237-0.039 0.519 0.026 0.747l0.1 0.079 8.33 0.023c0.063-0.183 0.016-0.491 0.016-0.688l0.003-1.865-0.002-9.4c-0.037-0.060-0.049-0.103-0.119-0.125zM24.123 16.722c-0.107 0.198-0.072 0.474-0.074 0.695l0.002 1.511v4.225c-0.002 0.786 0.032 1.588-0.016 2.372l3.298 0.030c0.283 0 0.844 0.065 1.063-0.075l0.030-0.070-0.032-8.688-4.272 0.002zM9.358 14.566l-0.035 5.861-1.858 0.365 1.767 3.344c0.186 0.356 0.488 1.151 0.8 1.356l1.811 0.074 0.005-11.016-2.489 0.016zM3.569 14.557l0.012 5.039 3.405-0.635 0.502-0.149 0.014-4.237-3.933-0.018zM5.030 21.269l-1.44 0.307-0.023 3.935 2.888 0.039 1.391 0.003c-0.36-0.609-2.053-4.153-2.375-4.317l-0.44 0.033zM24.065 11.501l-0.030 3.27c0.451 0.007 2.263 0.151 2.561-0.049l0.009-3.214-2.54-0.007z"></path>
</symbol>
<symbol id="icon-seal" viewBox="0 0 108 32">
<path fill="#fff" style="fill: var(--color1, #fff)" opacity="0.64" d="M53.454 11.507c-0.101-0.894-0.516-1.587-1.247-2.078-0.73-0.497-1.649-0.746-2.758-0.746-0.793 0-1.48 0.126-2.059 0.378-0.579 0.246-1.029 0.586-1.351 1.020-0.315 0.428-0.472 0.916-0.472 1.464 0 0.46 0.107 0.856 0.321 1.19 0.22 0.334 0.507 0.614 0.859 0.841 0.359 0.22 0.743 0.406 1.153 0.557 0.409 0.145 0.803 0.265 1.181 0.359l1.889 0.491c0.617 0.151 1.25 0.356 1.898 0.614s1.25 0.598 1.804 1.020c0.554 0.422 1.001 0.945 1.341 1.568 0.347 0.623 0.519 1.37 0.519 2.239 0 1.096-0.283 2.068-0.85 2.919-0.56 0.85-1.376 1.521-2.446 2.012-1.064 0.491-2.352 0.737-3.863 0.737-1.448 0-2.701-0.23-3.759-0.69s-1.886-1.111-2.484-1.955c-0.598-0.85-0.928-1.858-0.992-3.022h2.928c0.057 0.699 0.283 1.281 0.68 1.747 0.403 0.46 0.916 0.803 1.539 1.029 0.63 0.22 1.319 0.331 2.069 0.331 0.825 0 1.558-0.129 2.201-0.387 0.649-0.264 1.159-0.63 1.53-1.096 0.371-0.472 0.557-1.023 0.557-1.653 0-0.573-0.164-1.042-0.491-1.407-0.321-0.365-0.759-0.667-1.313-0.907-0.548-0.239-1.168-0.45-1.861-0.633l-2.286-0.623c-1.549-0.422-2.777-1.042-3.684-1.861-0.901-0.819-1.351-1.902-1.351-3.249 0-1.114 0.302-2.087 0.907-2.919s1.423-1.477 2.456-1.936c1.033-0.466 2.198-0.699 3.495-0.699 1.31 0 2.465 0.23 3.466 0.689 1.007 0.46 1.801 1.092 2.38 1.898 0.579 0.8 0.881 1.719 0.907 2.758h-2.815zM60.020 25.769v-19.344h12.128v2.512h-9.209v5.894h8.576v2.503h-8.576v5.922h9.322v2.512h-12.241zM77.681 25.769h-3.098l6.961-19.344h3.372l6.961 19.344h-3.098l-5.469-15.83h-0.151l-5.478 15.83zM78.2 18.195h10.050v2.456h-10.050v-2.456zM94.67 25.769v-19.344h2.919v16.831h8.765v2.512h-11.684z"></path>
<path fill="#fff" style="fill: var(--color1, #fff)" opacity="0.64" d="M19.694 9.446c1.015-1.24 1.922-2.456 3.205-3.366 1.28-0.908 2.927-1.458 4.443-1.513 2.932-0.106 5.728 1.675 7.493 4.295 0.079 0.117 0.191 0.26 0.245 0.391 4.030 6.159-0.031 15.546-6.509 16.366-0.669 0.085-1.368 0.073-2.043 0.101l-1.021 0.040c-0.298 0.011-0.606 0.028-0.902-0.032l-0.119-0.037c-1.451-0.518-1.819-2.969-0.416-3.813 0.483-0.291 1.128-0.234 1.665-0.256l1.679-0.071c5.217-0.406 7.402-8.014 3.122-11.668-1.654-1.347-3.833-1.524-5.559-0.329-0.802 0.672-1.457 1.495-2.135 2.317l-9.043 10.902c-0.6 0.665-1.218 1.287-1.962 1.742-1.926 1.178-4.125 1.237-6.18 0.356-4.891-2.097-7.159-8.77-4.578-13.874 1.551-3.417 4.236-5.498 7.644-5.64 2.060-0.086 4.122 0.681 5.779 2.092 0.463 0.394 0.888 0.796 1.070 1.445 0.485 1.733-1.16 3.27-2.662 2.334-0.411-0.256-0.768-0.611-1.172-0.879-2.236-1.487-4.919-1.027-6.52 1.256-0.936 1.496-1.393 3.288-1.143 5.123 0.197 1.442 0.818 2.843 1.89 3.699 1.412 1.129 3.263 1.155 4.646 0.013 0.515-0.425 0.957-1.026 1.388-1.557l7.696-9.436z"></path>
</symbol>
<symbol id="icon-sora" viewBox="0 0 121 32">
<path fill="#fff" style="fill: var(--color1, #fff)" opacity="0.64" d="M57.296 11.263c-0.101-1.203-0.592-2.175-1.474-2.919-0.875-0.743-2.009-1.115-3.4-1.115-0.938 0-1.773 0.173-2.503 0.519s-1.303 0.819-1.719 1.417c-0.416 0.598-0.623 1.285-0.623 2.059 0 0.497 0.094 0.948 0.283 1.351 0.195 0.397 0.469 0.752 0.822 1.067 0.353 0.309 0.771 0.579 1.256 0.812s1.020 0.438 1.606 0.614l2.116 0.623c0.724 0.22 1.391 0.475 2.002 0.765 0.617 0.29 1.153 0.636 1.606 1.039 0.46 0.397 0.815 0.863 1.067 1.398 0.258 0.535 0.387 1.152 0.387 1.851 0 1.020-0.265 1.933-0.793 2.739-0.523 0.806-1.269 1.442-2.239 1.908-0.963 0.46-2.1 0.689-3.409 0.689-1.247 0-2.333-0.211-3.259-0.633-0.919-0.422-1.647-1.007-2.182-1.757-0.535-0.756-0.837-1.625-0.907-2.607h1.209c0.063 0.8 0.318 1.492 0.765 2.078 0.453 0.579 1.055 1.026 1.804 1.341s1.606 0.472 2.569 0.472c1.039 0 1.955-0.176 2.748-0.529 0.793-0.359 1.414-0.856 1.861-1.492s0.67-1.376 0.67-2.22c0-0.68-0.16-1.263-0.482-1.747s-0.796-0.904-1.426-1.256c-0.623-0.353-1.398-0.667-2.324-0.944l-2.257-0.68c-1.512-0.46-2.667-1.086-3.466-1.88-0.793-0.793-1.19-1.782-1.19-2.966 0-0.995 0.264-1.876 0.793-2.645 0.529-0.775 1.247-1.382 2.154-1.823 0.913-0.441 1.942-0.661 3.089-0.661 1.152 0 2.169 0.224 3.051 0.671 0.881 0.441 1.581 1.048 2.097 1.823 0.517 0.768 0.803 1.647 0.859 2.635h-1.162zM80.902 16.099c0 1.996-0.347 3.74-1.039 5.233-0.693 1.486-1.656 2.641-2.89 3.466-1.228 0.825-2.644 1.237-4.25 1.237-1.612 0-3.035-0.412-4.269-1.237-1.228-0.831-2.188-1.99-2.881-3.476-0.692-1.492-1.039-3.233-1.039-5.223 0-1.996 0.347-3.737 1.039-5.223 0.699-1.486 1.662-2.642 2.89-3.466 1.228-0.831 2.648-1.247 4.26-1.247 1.606 0 3.023 0.412 4.25 1.237 1.234 0.825 2.198 1.983 2.89 3.476 0.692 1.486 1.039 3.227 1.039 5.223zM79.75 16.099c0-1.795-0.302-3.35-0.907-4.666-0.598-1.316-1.426-2.333-2.484-3.051-1.058-0.724-2.27-1.086-3.636-1.086s-2.579 0.359-3.636 1.077c-1.058 0.712-1.889 1.728-2.493 3.051-0.598 1.316-0.897 2.874-0.897 4.675 0 1.782 0.296 3.334 0.888 4.656 0.598 1.316 1.426 2.336 2.484 3.060s2.277 1.086 3.655 1.086c1.366 0 2.578-0.359 3.636-1.077 1.058-0.724 1.886-1.744 2.484-3.060 0.605-1.316 0.907-2.871 0.907-4.666zM87.644 25.771v-19.344h5.96c1.221 0 2.273 0.239 3.155 0.718s1.558 1.143 2.031 1.993c0.473 0.844 0.709 1.826 0.709 2.947 0 1.108-0.236 2.084-0.709 2.928-0.472 0.837-1.149 1.492-2.031 1.965-0.875 0.472-1.924 0.708-3.145 0.708h-5.337v-1.105h5.308c0.995 0 1.845-0.186 2.551-0.557s1.247-0.891 1.624-1.559c0.378-0.674 0.567-1.467 0.567-2.38 0-0.919-0.189-1.719-0.567-2.399-0.378-0.686-0.923-1.218-1.634-1.596-0.705-0.378-1.555-0.567-2.55-0.567h-4.751v18.248h-1.181zM95.587 17.005l4.76 8.765h-1.36l-4.732-8.765h1.332zM105.597 25.771h-1.247l6.98-19.344h1.36l6.98 19.344h-1.247l-6.366-17.823h-0.094l-6.366 17.823zM107.364 18.488h9.294v1.096h-9.294v-1.096z"></path>
<path fill="#fff" style="fill: var(--color1, #fff)" opacity="0.64" d="M32.199 22.462c-3.359 1.939-7.225 2.141-9.558 2.039 2.197-1.126 5.661-3.362 7.777-7.028 0.567-0.98 0.993-1.992 1.316-2.997 3.197-0.893 6.276-0.698 7.619-0.545-0.725 1.671-2.963 6.111-7.155 8.531zM8.646 22.462c-4.182-2.416-6.427-6.86-7.155-8.531 1.343-0.156 4.423-0.345 7.619 0.545 0.324 1.005 0.749 2.017 1.316 2.997 2.116 3.666 5.581 5.902 7.775 7.028-2.331 0.102-6.196-0.1-9.556-2.039zM9.492 5.929c1.674 0.727 6.118 2.973 8.531 7.155 1.002 1.735 1.535 3.603 1.807 5.328-0.348 2.326-0.241 4.364-0.117 5.532-1.82-0.822-5.982-3.046-8.291-7.048-2.416-4.184-2.138-9.154-1.932-10.966zM20.422 3c0.805 1.085 2.511 3.656 3.338 6.872-0.708 0.781-1.372 1.657-1.936 2.635-0.615 1.068-1.070 2.172-1.401 3.265-0.331-1.092-0.786-2.197-1.401-3.265-0.564-0.98-1.229-1.856-1.936-2.637 0.825-3.214 2.532-5.785 3.338-6.87zM29.421 16.896c-2.309 4.002-6.471 6.225-8.291 7.048 0.124-1.168 0.231-3.206-0.119-5.532 0.275-1.725 0.808-3.593 1.81-5.328 2.413-4.182 6.858-6.427 8.531-7.155 0.204 1.812 0.484 6.782-1.932 10.966zM40.662 13.176c-0.008-0.014-0.017-0.028-0.027-0.042-0.087-0.124-0.218-0.21-0.367-0.238-0.168-0.032-3.931-0.715-8.174 0.297 1.012-4.216 0.331-7.972 0.292-8.181-0.032-0.165-0.134-0.307-0.28-0.392-0.143-0.085-0.319-0.1-0.477-0.044-0.202 0.068-3.795 1.357-6.941 4.34-1.243-4.179-3.717-7.096-3.831-7.228-0.109-0.127-0.268-0.199-0.435-0.199s-0.328 0.073-0.438 0.199c-0.109 0.129-2.586 3.046-3.831 7.228-3.143-2.982-6.736-4.272-6.938-4.34-0.158-0.056-0.333-0.039-0.479 0.044-0.144 0.085-0.246 0.226-0.277 0.392-0.039 0.209-0.72 3.965 0.289 8.181-4.24-1.012-8.004-0.328-8.174-0.297-0.165 0.032-0.307 0.134-0.392 0.28-0.083 0.143-0.1 0.319-0.044 0.477 0.092 0.268 2.36 6.59 7.931 9.806 3.158 1.822 6.644 2.228 9.125 2.228 1.657 0 2.863-0.18 3.228-0.243 0.365 0.063 1.572 0.243 3.228 0.243 2.481 0 5.967-0.406 9.123-2.228 5.103-2.945 7.434-8.494 7.862-9.615 0.039-0.103 0.063-0.169 0.071-0.192 0.056-0.158 0.039-0.333-0.044-0.477z"></path>
<path fill="#fff" style="fill: var(--color1, #fff)" opacity="0.64" d="M40.636 13.134v0.71c-0.428 1.121-2.759 6.67-7.862 9.615-3.155 1.822-6.641 2.228-9.123 2.228-1.657 0-2.863-0.18-3.228-0.243-0.365 0.063-1.571 0.243-3.228 0.243-2.481 0-5.967-0.406-9.125-2.228-5.571-3.216-7.838-9.539-7.931-9.806-0.056-0.158-0.039-0.333 0.044-0.477 0.085-0.146 0.226-0.248 0.392-0.28 0.17-0.032 3.934-0.715 8.174 0.297-1.010-4.216-0.328-7.972-0.289-8.181 0.032-0.165 0.134-0.307 0.277-0.392 0.146-0.083 0.321-0.1 0.479-0.044 0.202 0.068 3.795 1.357 6.938 4.34 1.246-4.182 3.722-7.099 3.831-7.228 0.109-0.127 0.27-0.199 0.438-0.199s0.326 0.073 0.435 0.199c0.114 0.131 2.588 3.048 3.831 7.228 3.145-2.982 6.739-4.272 6.941-4.34 0.158-0.056 0.333-0.041 0.477 0.044 0.146 0.085 0.248 0.226 0.28 0.392 0.039 0.209 0.72 3.965-0.292 8.181 4.243-1.012 8.006-0.328 8.174-0.297 0.149 0.028 0.281 0.114 0.367 0.238zM18.024 13.084c-2.413-4.182-6.858-6.427-8.531-7.155-0.207 1.812-0.484 6.782 1.932 10.966 2.309 4.002 6.471 6.225 8.291 7.048-0.124-1.168-0.231-3.206 0.117-5.532-0.273-1.725-0.805-3.593-1.807-5.328zM8.646 22.462c-4.182-2.416-6.427-6.86-7.155-8.531 1.343-0.156 4.423-0.345 7.619 0.545 0.324 1.005 0.749 2.017 1.316 2.997 2.116 3.666 5.581 5.902 7.775 7.028-2.33 0.102-6.196-0.1-9.556-2.039zM21.13 23.943c1.82-0.822 5.982-3.046 8.291-7.048 2.416-4.184 2.136-9.154 1.932-10.966-1.674 0.727-6.118 2.973-8.531 7.155-1.002 1.735-1.535 3.603-1.81 5.328 0.35 2.326 0.243 4.364 0.119 5.532zM32.199 22.462c-3.359 1.939-7.225 2.141-9.558 2.039 2.197-1.126 5.661-3.362 7.777-7.028 0.567-0.98 0.993-1.992 1.316-2.997 3.197-0.893 6.276-0.698 7.619-0.545-0.725 1.671-2.963 6.111-7.155 8.531zM23.76 9.873c-0.827-3.216-2.532-5.787-3.338-6.872-0.805 1.085-2.513 3.656-3.338 6.87 0.708 0.781 1.372 1.657 1.936 2.637 0.615 1.068 1.070 2.172 1.401 3.265 0.331-1.092 0.786-2.197 1.401-3.265 0.564-0.978 1.228-1.854 1.936-2.635z"></path>
</symbol>
<symbol id="icon-venus" viewBox="0 0 113 32">
<path fill="#fff" style="fill: var(--color1, #fff)" opacity="0.64" d="M32.703 8.655l4.561 13.793h0.18l4.552-13.793h3.491l-6.177 17.523h-3.919l-6.169-17.523h3.482zM47.794 26.178v-17.523h11.397v2.661h-8.222v4.757h7.632v2.661h-7.632v4.783h8.291v2.661h-11.465zM76.83 8.655v17.523h-2.824l-8.257-11.936h-0.145v11.936h-3.174v-17.523h2.84l8.248 11.944h0.154v-11.944h3.157zM91.334 8.655h3.174v11.448c0 1.255-0.297 2.359-0.89 3.311-0.587 0.953-1.414 1.697-2.481 2.233-1.067 0.53-2.313 0.796-3.739 0.796-1.432 0-2.681-0.265-3.748-0.796-1.067-0.536-1.894-1.281-2.481-2.233s-0.881-2.056-0.881-3.311v-11.448h3.174v11.183c0 0.73 0.16 1.38 0.479 1.951 0.325 0.57 0.781 1.018 1.369 1.343 0.588 0.319 1.283 0.479 2.088 0.479s1.5-0.16 2.088-0.479c0.593-0.325 1.050-0.773 1.369-1.343s0.479-1.221 0.479-1.951v-11.183zM107.482 13.472c-0.080-0.747-0.416-1.329-1.010-1.745-0.587-0.416-1.352-0.625-2.293-0.625-0.662 0-1.229 0.1-1.703 0.299s-0.836 0.471-1.087 0.813c-0.251 0.342-0.379 0.733-0.385 1.172 0 0.365 0.083 0.682 0.248 0.95 0.171 0.268 0.402 0.496 0.693 0.684 0.291 0.183 0.613 0.337 0.967 0.462s0.71 0.231 1.070 0.317l1.643 0.411c0.662 0.154 1.298 0.362 1.908 0.625 0.616 0.262 1.166 0.593 1.651 0.992 0.491 0.399 0.878 0.881 1.164 1.446s0.428 1.226 0.428 1.985c0 1.027-0.262 1.931-0.787 2.712-0.525 0.776-1.283 1.383-2.276 1.823-0.987 0.433-2.182 0.65-3.585 0.65-1.363 0-2.547-0.211-3.551-0.633-0.998-0.422-1.78-1.038-2.344-1.848-0.559-0.81-0.861-1.797-0.907-2.96h3.123c0.046 0.61 0.234 1.118 0.565 1.523s0.762 0.707 1.292 0.907c0.536 0.2 1.135 0.299 1.797 0.299 0.69 0 1.295-0.103 1.814-0.308 0.525-0.211 0.936-0.502 1.232-0.873 0.297-0.376 0.448-0.816 0.453-1.318-0.006-0.456-0.14-0.833-0.402-1.129-0.262-0.302-0.63-0.553-1.104-0.753-0.468-0.205-1.015-0.388-1.643-0.548l-1.994-0.513c-1.443-0.371-2.584-0.933-3.423-1.686-0.833-0.759-1.249-1.765-1.249-3.020 0-1.032 0.28-1.937 0.838-2.712 0.565-0.776 1.332-1.378 2.302-1.805 0.97-0.434 2.068-0.65 3.294-0.65 1.244 0 2.333 0.217 3.269 0.65 0.941 0.428 1.68 1.024 2.216 1.788 0.536 0.759 0.813 1.631 0.83 2.618h-3.055z"></path>
<path fill="#fff" style="fill: var(--color1, #fff)" opacity="0.64" d="M6.151 7.064c0.283 0.291 0.466 0.625 0.692 0.957l0.83 1.196 3.121 4.539 1.737 2.56 6.52-9.259-0.055 6.239c0.001 0.092 0.028 0.353-0.004 0.425-0.067 0.153-0.282 0.359-0.389 0.498l-1.005 1.35-2.919 4.052-2.124 3.001-3.944-5.62-1.309-1.803-0.769-1.034c-0.105-0.138-0.321-0.359-0.373-0.524-0.032-0.101-0.012-0.297-0.013-0.405l-0.003-1.055 0.007-5.116z"></path>
<path fill="#fff" style="fill: var(--color1, #fff)" opacity="0.64" d="M-0 0.003c0.13 0.185 0.303 0.345 0.439 0.528l2.445 3.182c0.158 0.205 0.331 0.401 0.48 0.612 0.037 0.053 0.122 0.153 0.14 0.212 0.024 0.076 0.010 0.2 0.010 0.282l0.007 17.599c0.447 0.027 0.906 0.009 1.353 0.009l2.469-0.005c0.488-0.001 0.992-0.028 1.476 0.032 0.091 0.066 0.156 0.185 0.22 0.278l0.417 0.62 0.922 1.364c0.329 0.476 0.684 0.955 0.975 1.455l-11.336 0.008-0.018-26.175z"></path>
<path fill="#fff" style="fill: var(--color1, #fff)" opacity="0.64" d="M25.123 0.125l0.051 0.006-0.001 26.010c-0.186 0.063-0.53 0.019-0.732 0.019l-1.88 0.006-8.778 0.009-0.049-0.011-0.010-0.035c0.104-0.205 0.25-0.376 0.382-0.561l1.627-2.331c0.192-0.272 0.373-0.564 0.592-0.814l4.836-0.011c0.060-0 0.462 0.014 0.484-0.003 0.019-0.014 0.015-2.363 0.017-3.331l0.013-13.771c0.001-0.211-0.041-0.538 0.007-0.731 0.046-0.183 0.316-0.459 0.434-0.607l0.787-1.013 1.205-1.561c0.324-0.43 0.635-0.886 1.015-1.269z"></path>
</symbol>
</defs>
</svg>
