<svg aria-hidden="true" style="position: absolute; width: 0; height: 0; overflow: hidden;" version="1.1" xmlns="http://www.w3.org/2000/svg" xmlns:xlink="http://www.w3.org/1999/xlink">
<defs>
<symbol id="icon-arrow" viewBox="0 0 32 32">
<path fill="none" stroke="#fff" style="stroke: var(--color1, #fff)" stroke-linejoin="miter" stroke-linecap="butt" stroke-miterlimit="4" stroke-width="4.4269" d="M1.565 30.435l28.221-28.221M1.565 2.213h28.221v28.221"></path>
</symbol>
<symbol id="icon-arrow-btn" viewBox="0 0 32 32">
<path stroke-linejoin="miter" stroke-linecap="butt" stroke-miterlimit="4" stroke-width="4.5888" d="M1.622 30.378l28.083-28.083M1.622 2.294h28.083v28.083"></path>
</symbol>
<symbol id="icon-hot-price" viewBox="0 0 32 32">
<path fill="none" stroke="#fff" style="stroke: var(--color1, #fff)" stroke-linejoin="round" stroke-linecap="butt" stroke-miterlimit="4" stroke-width="2" d="M26.667 18.667c0-8-10.667-16-10.667-16-0.518 3.316-1.025 5.095-2.667 8-1.601-0.74-2-1.333-2.667-3-2.667 3-5.333 7-5.333 11 0 5.891 4.776 10.667 10.667 10.667s10.667-4.776 10.667-10.667z"></path>
<path fill="none" stroke="#fff" style="stroke: var(--color1, #fff)" stroke-linejoin="round" stroke-linecap="round" stroke-miterlimit="4" stroke-width="2" d="M13.333 22.667l5.333-5.333"></path>
<path fill="none" stroke="#fff" style="stroke: var(--color1, #fff)" stroke-linejoin="round" stroke-linecap="round" stroke-miterlimit="4" stroke-width="2.6667" d="M13.333 17.333h0.012M18.655 22.667h0.012"></path>
</symbol>
<symbol id="icon-recent" viewBox="0 0 32 32">
<path fill="none" stroke="#fff" style="stroke: var(--color1, #fff)" stroke-linejoin="round" stroke-linecap="round" stroke-miterlimit="4" stroke-width="2" d="M14.675 28h-1.868c-4.78 0-7.17 0-8.656-1.513s-1.485-3.949-1.485-8.82 0-7.307 1.485-8.82 3.875-1.513 8.656-1.513h5.070c4.78 0 7.171 0 8.656 1.513 1.142 1.164 1.406 2.875 1.467 5.82"></path>
<path fill="none" stroke="#fff" style="stroke: var(--color1, #fff)" stroke-linejoin="round" stroke-linecap="round" stroke-miterlimit="4" stroke-width="2" d="M25.133 25.134l-1.8-1.2v-3M23.333 29.334c3.314 0 6-2.686 6-6s-2.686-6-6-6c-3.314 0-6 2.686-6 6s2.686 6 6 6z"></path>
<path fill="none" stroke="#fff" style="stroke: var(--color1, #fff)" stroke-linejoin="round" stroke-linecap="round" stroke-miterlimit="4" stroke-width="2" d="M21.333 7.333l-0.132-0.412c-0.66-2.053-0.99-3.080-1.776-3.667s-1.829-0.587-3.916-0.587h-0.351c-2.087 0-3.131 0-3.916 0.587s-1.116 1.614-1.776 3.667l-0.132 0.412"></path>
</symbol>
<symbol id="icon-star" viewBox="0 0 32 32">
<path fill="none" stroke="#fff" style="stroke: var(--color1, #fff)" stroke-linejoin="round" stroke-linecap="butt" stroke-miterlimit="4" stroke-width="2" d="M18.623 12.969c0.040 0.137 0.060 0.205 0.103 0.258 0.014 0.017 0.030 0.033 0.047 0.047 0.052 0.043 0.121 0.063 0.258 0.103l7 2.047c0.704 0.206 1.056 0.309 1.104 0.491 0.015 0.056 0.015 0.114 0 0.17-0.048 0.182-0.4 0.285-1.104 0.491l-7 2.047c-0.137 0.040-0.205 0.060-0.258 0.103-0.017 0.014-0.033 0.030-0.047 0.047-0.043 0.052-0.063 0.121-0.103 0.258l-2.047 7c-0.206 0.704-0.309 1.056-0.491 1.104-0.056 0.015-0.114 0.015-0.17 0-0.182-0.048-0.285-0.4-0.491-1.104l-2.047-7c-0.040-0.137-0.060-0.205-0.103-0.258-0.014-0.017-0.030-0.033-0.047-0.047-0.052-0.043-0.121-0.063-0.258-0.103l-7-2.047c-0.704-0.206-1.056-0.309-1.104-0.491-0.015-0.056-0.015-0.114 0-0.17 0.048-0.182 0.4-0.285 1.104-0.491l7-2.047c0.137-0.040 0.205-0.060 0.258-0.103 0.017-0.014 0.033-0.030 0.047-0.047 0.043-0.052 0.063-0.121 0.103-0.258l2.047-7c0.206-0.704 0.309-1.056 0.491-1.104 0.056-0.015 0.114-0.015 0.17 0 0.182 0.048 0.285 0.4 0.491 1.104l2.047 7z"></path>
</symbol>
<symbol id="icon-thunder" viewBox="0 0 32 32">
<path fill="none" stroke="#fff" style="stroke: var(--color1, #fff)" stroke-linejoin="round" stroke-linecap="round" stroke-miterlimit="4" stroke-width="3.6923" d="M16.322 2.399c0.722-0.994 2.075-0.375 2.075 0.949v9.841c0 0.794 0.53 1.437 1.185 1.437h4.489c1.020 0 1.563 1.458 0.89 2.386l-9.229 12.714c-0.722 0.994-2.075 0.375-2.075-0.949v-9.841c0-0.793-0.53-1.437-1.185-1.437h-4.489c-1.020 0-1.563-1.458-0.89-2.386l9.228-12.714z"></path>
</symbol>
</defs>
</svg>
